<svg width="59" height="41" viewBox="0 0 59 41" fill="none" xmlns="http://www.w3.org/2000/svg">
<path d="M51.2485 0L33.25 1.48014e-05L36.7298 3.74248H42.6482V11.7754L46.2434 15.4524V3.74248L54.7844 3.74245L51.2485 0Z" fill="#081B3E"/>
<path d="M8.60418 0H26.8262L23.2844 3.6504H17.6647L17.6647 11.0442L14.0249 14.6986V3.6504H4.91406L8.60418 0Z" fill="#081B3E"/>
<path d="M30.9051 0H29.158L25.6953 3.39199H34.3846L30.9051 0Z" fill="#081B3E"/>
<path d="M14.7146 35.113H17.7326L17.5707 35.8647H16.5748L15.9053 39.0117H14.8545L15.5239 35.8647H14.5582L14.7146 35.113ZM17.8753 35.113H20.8933L20.7314 35.8647H19.7355L19.066 39.0117H18.0152L18.6847 35.8647H17.7189L17.8753 35.113ZM23.1706 35.113H24.2214L23.5519 38.2353H25.1652L24.9951 39.0117H22.3392L23.1706 35.113ZM26.2407 35.113H28.9872L28.8308 35.8373H27.1215L26.9596 36.6192H28.5674L28.4192 37.3216H26.8087L26.6057 38.2819H28.3753L28.2189 39.0117H25.4094L26.2407 35.113ZM31.3275 35.8757L30.4633 37.4451H31.5141L31.3275 35.8757ZM30.8062 35.113H32.0985L32.7268 39.0117H31.6924L31.5909 38.1804H30.0627L29.5963 39.0117H28.5015L30.8062 35.113ZM37.1441 35.209L36.9191 36.0101C36.7728 35.9315 36.621 35.873 36.4637 35.8345C36.3082 35.7943 36.1454 35.7742 35.9753 35.7742C35.4595 35.7742 35.0553 35.9059 34.7626 36.1693C34.4699 36.4327 34.3236 36.7939 34.3236 37.253C34.3236 37.5878 34.4132 37.8502 34.5925 38.0405C34.7717 38.2307 35.0187 38.3258 35.3333 38.3258C35.3973 38.3258 35.4632 38.3212 35.5308 38.3121C35.5985 38.3011 35.6717 38.2856 35.7503 38.2654L35.9259 37.4506H35.2839L35.4348 36.7427H37.0591L36.5981 38.8992C36.4042 38.9632 36.1975 39.0108 35.9781 39.0419C35.7586 39.0748 35.518 39.0913 35.2565 39.0913C34.6254 39.0913 34.1361 38.9294 33.7886 38.6057C33.4411 38.2819 33.2673 37.8274 33.2673 37.242C33.2673 36.9457 33.3158 36.6695 33.4127 36.4135C33.5115 36.1556 33.656 35.9297 33.8462 35.7358C34.084 35.487 34.3629 35.305 34.683 35.1898C35.0031 35.0745 35.3927 35.0169 35.8518 35.0169C36.0878 35.0169 36.3128 35.0325 36.5268 35.0636C36.7408 35.0947 36.9466 35.1431 37.1441 35.209ZM38.1209 35.113H39.1662L38.6943 37.2859C38.6723 37.3811 38.6559 37.4753 38.6449 37.5685C38.6358 37.66 38.6312 37.7496 38.6312 37.8374C38.6312 37.9838 38.6842 38.1072 38.7903 38.2078C38.8964 38.3084 39.0272 38.3587 39.1827 38.3587C39.3912 38.3587 39.5567 38.2782 39.6793 38.1173C39.8018 37.9563 39.9097 37.6664 40.003 37.2475L40.4749 35.113H41.4791L40.9798 37.5384C40.8664 38.0871 40.6615 38.4868 40.3652 38.7374C40.0689 38.9879 39.6537 39.1132 39.1196 39.1132C38.6275 39.1132 38.2498 39.0007 37.9864 38.7758C37.723 38.549 37.5913 38.2252 37.5913 37.8045C37.5913 37.7094 37.5959 37.6179 37.605 37.5301C37.6142 37.4405 37.6288 37.3555 37.6489 37.275L38.1209 35.113ZM42.2638 35.113H45.0102L44.8538 35.8373H43.1445L42.9827 36.6192H44.5904L44.4423 37.3216H42.8318L42.6287 38.2819H44.3984L44.242 39.0117H41.4325L42.2638 35.113Z" fill="#081B3E"/>
<path d="M1.07552 20.7611H7.11161L6.78785 22.2646H4.79594L3.45703 28.5586H1.35538L2.69429 22.2646H0.762741L1.07552 20.7611ZM7.9841 20.7611H10.1077L9.48763 23.6913H11.9021L12.5331 20.7611H14.6567L13.005 28.5586H10.8704L11.5783 25.2552H9.1529L8.45601 28.5586H6.3324L7.9841 20.7611ZM19.5405 22.2866L17.8119 25.4253H19.9136L19.5405 22.2866ZM18.4979 20.7611H21.0824L22.339 28.5586H20.2703L20.0672 26.8959H17.0108L16.0779 28.5586H13.8885L18.4979 20.7611ZM24.6108 20.7611H26.6905L25.0278 28.5586H22.9481L24.6108 20.7611ZM28.5013 20.7611H30.603L29.264 27.0057H32.4906L32.1504 28.5586H26.8386L28.5013 20.7611ZM38.0219 22.2866L36.2933 25.4253H38.395L38.0219 22.2866ZM36.9793 20.7611H39.5638L40.8204 28.5586H38.7517L38.5486 26.8959H35.4922L34.5593 28.5586H32.3699L36.9793 20.7611ZM43.0373 20.7611H45.5999L46.8126 24.7174C46.9223 25.0686 47.0065 25.3704 47.065 25.6229C47.1235 25.8753 47.1656 26.1167 47.1912 26.3472H47.2845C47.2991 26.1314 47.3284 25.8917 47.3723 25.6283C47.4162 25.365 47.4766 25.0577 47.5534 24.7065L48.3875 20.7611H50.2861L48.6234 28.5586H46.0608L44.7329 24.1961C44.6707 23.9986 44.6176 23.7974 44.5737 23.5925C44.5299 23.384 44.4969 23.1664 44.475 22.9395H44.3927C44.3561 23.2249 44.3177 23.4974 44.2774 23.7572C44.2372 24.0132 44.1933 24.2547 44.1457 24.4815L43.2842 28.5586H41.3746L43.0373 20.7611ZM53.6279 22.2646L52.6127 27.0166H53.4907C53.9516 27.0166 54.3376 26.9654 54.6485 26.863C54.9631 26.7569 55.2357 26.5886 55.4661 26.3582C55.7478 26.0765 55.9655 25.7418 56.1191 25.354C56.2764 24.9625 56.3551 24.5583 56.3551 24.1413C56.3551 23.545 56.1868 23.084 55.8503 22.7585C55.5137 22.4292 55.0345 22.2646 54.4126 22.2646H53.6279ZM51.8171 20.7611H54.4126C55.7844 20.7611 56.8051 21.0446 57.4745 21.6116C58.144 22.1786 58.4787 23.0438 58.4787 24.2071C58.4787 24.8766 58.3616 25.4967 58.1275 26.0673C57.897 26.6344 57.5696 27.1008 57.1453 27.4666C56.7099 27.8471 56.1996 28.1251 55.6143 28.3007C55.029 28.4726 54.2992 28.5586 53.4249 28.5586H50.1654L51.8171 20.7611Z" fill="#081B3E"/>
</svg>
