<svg width="32" height="33" viewBox="0 0 32 33" fill="none" xmlns="http://www.w3.org/2000/svg">
<g id="Bold Duotone / Video, Audio, Sound / Gallery">
<path id="Vector" d="M23.9974 11.1667C23.9974 12.6394 22.8035 13.8333 21.3307 13.8333C19.858 13.8333 18.6641 12.6394 18.6641 11.1667C18.6641 9.69391 19.858 8.5 21.3307 8.5C22.8035 8.5 23.9974 9.69391 23.9974 11.1667Z" fill="#FA6400"/>
<path id="Vector_2" fill-rule="evenodd" clip-rule="evenodd" d="M15.9209 2.16699H16.0739C19.1518 2.16698 21.5638 2.16696 23.4458 2.41999C25.3721 2.67897 26.8921 3.21943 28.0852 4.41251C29.2783 5.60559 29.8187 7.12562 30.0777 9.05193C30.3308 10.9339 30.3307 13.346 30.3307 16.4238V16.5415C30.3307 19.0866 30.3307 21.17 30.1925 22.8664C30.0536 24.5711 29.769 25.9956 29.1319 27.1786C28.8509 27.7005 28.5056 28.1677 28.0852 28.5881C26.8921 29.7812 25.3721 30.3217 23.4458 30.5807C21.5638 30.8337 19.1518 30.8337 16.0739 30.8337H15.9209C12.843 30.8337 10.431 30.8337 8.549 30.5807C6.62269 30.3217 5.10266 29.7812 3.90958 28.5881C2.85187 27.5304 2.30566 26.214 2.0152 24.5809C1.72986 22.9767 1.67767 20.9807 1.66682 18.5023C1.66406 17.8719 1.66406 17.2051 1.66406 16.5017L1.66406 16.4238C1.66405 13.346 1.66403 10.9339 1.91706 9.05193C2.17604 7.12562 2.7165 5.60559 3.90958 4.41251C5.10266 3.21943 6.62269 2.67897 8.549 2.41999C10.431 2.16696 12.843 2.16698 15.9209 2.16699ZM8.8155 4.40215C7.11096 4.63132 6.08333 5.06718 5.32379 5.82672C4.56425 6.58626 4.12839 7.61389 3.89922 9.31843C3.66619 11.0517 3.66406 13.3294 3.66406 16.5003C3.66406 17.2052 3.66406 17.8679 3.6668 18.4935C3.67774 20.9924 3.73358 22.8211 3.98429 24.2307C4.22988 25.6114 4.64771 26.4978 5.32379 27.1739C6.08333 27.9335 7.11096 28.3693 8.8155 28.5985C10.5488 28.8315 12.8264 28.8337 15.9974 28.8337C19.1684 28.8337 21.446 28.8315 23.1793 28.5985C24.8838 28.3693 25.9115 27.9335 26.671 27.1739C26.9509 26.894 27.1803 26.5845 27.371 26.2304C27.8132 25.4092 28.0682 24.3107 28.1991 22.704C28.33 21.098 28.3307 19.0948 28.3307 16.5003C28.3307 13.3294 28.3286 11.0517 28.0956 9.31843C27.8664 7.61389 27.4305 6.58626 26.671 5.82672C25.9115 5.06718 24.8838 4.63132 23.1793 4.40215C21.446 4.16912 19.1684 4.16699 15.9974 4.16699C12.8264 4.16699 10.5488 4.16912 8.8155 4.40215Z" fill="#FA6400"/>
<path id="Subtract" opacity="0.4" d="M27.4727 26.0288L23.6988 22.6323C22.3127 21.3848 20.2486 21.2606 18.7229 22.3328L18.3253 22.6122C17.2651 23.3573 15.8227 23.2324 14.9064 22.3161L9.18678 16.5965C8.04516 15.4548 6.21394 15.3939 4.99891 16.457L3.66406 17.625C3.66444 17.9223 3.66511 18.2117 3.66635 18.4935C3.67728 20.9924 3.73313 22.8211 3.98384 24.2307C4.22942 25.6114 4.64725 26.4979 5.32334 27.1739C6.08288 27.9335 7.11051 28.3693 8.81504 28.5985C10.5483 28.8315 12.826 28.8337 15.9969 28.8337C19.1679 28.8337 21.4455 28.8315 23.1788 28.5985C24.8834 28.3693 25.911 27.9335 26.6705 27.1739C26.9504 26.894 27.1799 26.5845 27.3705 26.2304C27.4058 26.165 27.4398 26.0978 27.4727 26.0288Z" fill="#FA6400"/>
</g>
</svg>
