<svg width="22" height="22" viewBox="0 0 22 22" fill="none" xmlns="http://www.w3.org/2000/svg">
<g clip-path="url(#clip0_1947_57047)">
<path fill-rule="evenodd" clip-rule="evenodd" d="M13.5266 2.40316C15.2028 0.726943 17.9205 0.726943 19.5967 2.40316C21.2729 4.07937 21.2729 6.79705 19.5967 8.47327L10.9018 17.1681C10.4051 17.6649 10.1127 17.9574 9.78734 18.2111C9.4039 18.5102 8.98901 18.7666 8.55003 18.9758C8.17759 19.1533 7.78524 19.2841 7.11872 19.5062L4.06519 20.5241L3.32995 20.7691C2.7336 20.9679 2.07613 20.8127 1.63164 20.3682C1.18714 19.9237 1.03193 19.2662 1.23072 18.6699L2.49363 14.8812C2.71578 14.2146 2.84655 13.8223 3.02405 13.4498C3.23326 13.0108 3.48967 12.596 3.78875 12.2125C4.04249 11.8872 4.33495 11.5948 4.83176 11.098L13.5266 2.40316ZM4.03348 19.0853L6.6382 18.217C7.36339 17.9753 7.67151 17.8713 7.95848 17.7346C8.30731 17.5683 8.63699 17.3646 8.94168 17.1269C9.19235 16.9314 9.42313 16.7023 9.96365 16.1618L16.9023 9.22308C16.1794 8.96811 15.2481 8.49549 14.3762 7.62363C13.5044 6.75176 13.0317 5.82044 12.7768 5.09752L5.83808 12.0362C5.29756 12.5767 5.06846 12.8075 4.87295 13.0582C4.63529 13.3629 4.43154 13.6925 4.2653 14.0414C4.12853 14.3283 4.02457 14.6365 3.78284 15.3617L2.9146 17.9664L4.03348 19.0853ZM13.8921 3.9822C13.9234 4.14258 13.9764 4.3606 14.0648 4.61546C14.2639 5.18925 14.64 5.9428 15.3485 6.65135C16.0571 7.3599 16.8106 7.73594 17.3844 7.93501C17.6393 8.02343 17.8573 8.07642 18.0177 8.10777L18.6244 7.50099C19.7637 6.36175 19.7637 4.51467 18.6244 3.37543C17.4852 2.23619 15.6381 2.23619 14.4989 3.37543L13.8921 3.9822Z" fill="#FA6400"/>
<path d="M14.0648 4.61546C13.9764 4.3606 13.9234 4.14258 13.8921 3.9822L14.4989 3.37543C15.6381 2.23619 17.4852 2.23619 18.6244 3.37543C19.7637 4.51467 19.7637 6.36175 18.6244 7.50099L18.0177 8.10777C17.8573 8.07642 17.6393 8.02343 17.3844 7.93501C16.8106 7.73594 16.0571 7.3599 15.3485 6.65135C14.64 5.9428 14.2639 5.18925 14.0648 4.61546Z" fill="#FA6400"/>
</g>
<defs>
<clipPath id="clip0_1947_57047">
<rect width="22" height="22" fill="white"/>
</clipPath>
</defs>
</svg>
