<svg width="21" height="21" viewBox="0 0 21 21" fill="none" xmlns="http://www.w3.org/2000/svg">
<path fill-rule="evenodd" clip-rule="evenodd" d="M12.9121 2.29377C14.5121 0.693744 17.1062 0.693744 18.7062 2.29377C20.3063 3.89379 20.3063 6.48794 18.7062 8.08796L10.4066 16.3876C9.93243 16.8618 9.6533 17.141 9.34277 17.3832C8.97676 17.6687 8.58073 17.9134 8.1617 18.1131C7.80619 18.2825 7.43167 18.4074 6.79545 18.6194L3.88072 19.591L3.1789 19.8249C2.60966 20.0147 1.98207 19.8665 1.55778 19.4422C1.13349 19.0179 0.985339 18.3904 1.17509 17.8211L2.38059 14.2046C2.59265 13.5684 2.71747 13.1938 2.8869 12.8383C3.0866 12.4193 3.33136 12.0233 3.61684 11.6572C3.85905 11.3467 4.13821 11.0676 4.61245 10.5934L12.9121 2.29377ZM3.85045 18.2176L6.33677 17.3888C7.029 17.1581 7.32311 17.0588 7.59704 16.9283C7.93001 16.7696 8.24471 16.5751 8.53555 16.3483C8.77483 16.1616 8.99511 15.9429 9.51107 15.427L16.1344 8.8037C15.4443 8.56031 14.5553 8.10918 13.7231 7.27694C12.8908 6.44471 12.4397 5.55572 12.1963 4.86565L5.57303 11.489C5.05707 12.0049 4.83839 12.2252 4.65176 12.4645C4.42491 12.7553 4.23042 13.07 4.07173 13.403C3.94118 13.6769 3.84195 13.971 3.61121 14.6632L2.78243 17.1496L3.85045 18.2176ZM13.2609 3.80104C13.2909 3.95413 13.3414 4.16224 13.4258 4.40552C13.6159 4.95322 13.9748 5.67252 14.6512 6.34887C15.3275 7.02521 16.0468 7.38415 16.5945 7.57418C16.8378 7.65858 17.0459 7.70916 17.199 7.73908L17.7782 7.15988C18.8656 6.07243 18.8656 4.3093 17.7782 3.22184C16.6907 2.13439 14.9276 2.13439 13.8401 3.22184L13.2609 3.80104Z" fill="#666877"/>
</svg>
