<svg width="29" height="29" viewBox="0 0 29 29" fill="none" xmlns="http://www.w3.org/2000/svg">
<path fill-rule="evenodd" clip-rule="evenodd" d="M0 14.5C0 6.49187 6.49187 0 14.5 0C22.5081 0 29 6.49187 29 14.5C29 22.5081 22.5081 29 14.5 29C6.49187 29 0 22.5081 0 14.5ZM23.6833 13.9706C23.6833 9.99833 19.6723 6.76667 14.7416 6.76667C9.81157 6.76667 5.8 9.99833 5.8 13.9706C5.8 17.5317 8.98108 20.5141 13.2781 21.078C13.5693 21.1403 13.9656 21.2686 14.0659 21.5157C14.156 21.7402 14.1248 22.0918 14.0947 22.3185C14.0947 22.3185 13.9898 22.9449 13.9671 23.0783C13.9661 23.0846 13.9649 23.0911 13.9637 23.098C13.9212 23.3384 13.8141 23.9449 14.7416 23.5568C15.696 23.1576 19.8912 20.5466 21.7671 18.4029C23.063 16.9921 23.6833 15.5604 23.6833 13.9706Z" fill="#3F3F4C"/>
<path d="M14.7416 6.76667C19.6723 6.76667 23.6833 9.99833 23.6833 13.9706C23.6833 15.5604 23.063 16.9921 21.7671 18.4029C19.8912 20.5466 15.696 23.1576 14.7416 23.5568C13.8141 23.9449 13.9212 23.3384 13.9637 23.098L13.9671 23.0783C13.9898 22.9449 14.0947 22.3185 14.0947 22.3185C14.1248 22.0918 14.156 21.7402 14.0659 21.5157C13.9656 21.2686 13.5693 21.1403 13.2781 21.078C8.98108 20.5141 5.8 17.5317 5.8 13.9706C5.8 9.99833 9.81157 6.76667 14.7416 6.76667Z" fill="#FA6400"/>
<path d="M12.8801 12.084H12.2587C12.1634 12.084 12.0859 12.1639 12.0859 12.2621V16.2558C12.0859 16.3542 12.1634 16.434 12.2587 16.434H12.8801C12.9753 16.434 13.0526 16.3542 13.0526 16.2558V12.2621C13.0526 12.1639 12.9753 12.084 12.8801 12.084Z" fill="#3F3F4C"/>
<path d="M17.2163 12.084H16.5621C16.4618 12.084 16.3805 12.1639 16.3805 12.2621V14.6348L14.5183 12.1632C14.514 12.1569 14.5092 12.1509 14.5042 12.1451L14.5029 12.1441C14.4993 12.14 14.4958 12.1365 14.492 12.133C14.4909 12.132 14.4899 12.1311 14.4886 12.13C14.4856 12.1272 14.4824 12.1246 14.479 12.1221C14.4775 12.1207 14.4759 12.1197 14.4743 12.1184C14.4711 12.1163 14.4681 12.114 14.4648 12.1121C14.4631 12.1109 14.4613 12.1098 14.4593 12.1089C14.4561 12.107 14.4529 12.1051 14.4496 12.1035C14.4477 12.1026 14.4459 12.1016 14.4439 12.1009C14.4405 12.0993 14.4371 12.0977 14.4336 12.0965C14.4314 12.0958 14.4296 12.0951 14.4277 12.0944C14.4241 12.0931 14.4205 12.0919 14.4168 12.091C14.4148 12.0903 14.4126 12.09 14.4105 12.0893C14.4069 12.0886 14.4035 12.0877 14.4001 12.087C14.3976 12.0866 14.3949 12.0863 14.3924 12.0861C14.3892 12.0854 14.386 12.0852 14.3828 12.0849C14.3797 12.0845 14.3767 12.0845 14.3735 12.0843C14.3712 12.0843 14.3694 12.084 14.367 12.084H13.7131C13.6128 12.084 13.5312 12.1639 13.5312 12.2621V16.2558C13.5312 16.3542 13.6128 16.434 13.7131 16.434H14.367C14.4675 16.434 14.5489 16.3542 14.5489 16.2558V13.8839L16.4134 16.3586C16.4262 16.3765 16.4422 16.3911 16.4595 16.4027C16.46 16.4031 16.4607 16.4036 16.4613 16.4041C16.465 16.4064 16.4688 16.4087 16.4725 16.4108C16.4743 16.4118 16.4759 16.4125 16.4777 16.4134C16.4804 16.415 16.4835 16.4164 16.4863 16.4176C16.4894 16.4189 16.492 16.4201 16.4953 16.4213C16.497 16.422 16.4988 16.4227 16.5006 16.4233C16.5049 16.4248 16.5088 16.4261 16.513 16.4273C16.5138 16.4273 16.5147 16.4277 16.5156 16.4278C16.5305 16.4317 16.546 16.434 16.5621 16.434H17.2163C17.3168 16.434 17.3979 16.3542 17.3979 16.2558V12.2621C17.3979 12.1639 17.3168 12.084 17.2163 12.084Z" fill="#3F3F4C"/>
<path d="M11.4265 15.4339H9.69453V12.2625C9.69453 12.1639 9.61527 12.084 9.51771 12.084H8.88012C8.78239 12.084 8.70312 12.1639 8.70312 12.2625V16.2553V16.2557C8.70312 16.3036 8.72211 16.347 8.7526 16.379C8.7533 16.3799 8.75399 16.3807 8.75504 16.3816C8.75591 16.3825 8.75678 16.3832 8.75765 16.3841C8.78953 16.415 8.83239 16.434 8.87994 16.434H11.4265C11.5242 16.434 11.6031 16.3539 11.6031 16.2553V15.6124C11.6031 15.5139 11.5242 15.4339 11.4265 15.4339Z" fill="#3F3F4C"/>
<path d="M20.6062 13.084C20.7039 13.084 20.7828 13.0043 20.7828 12.9055V12.2627C20.7828 12.1641 20.7039 12.084 20.6062 12.084H18.0598H18.0595C18.0117 12.084 17.9687 12.1033 17.9368 12.1344C17.9361 12.1351 17.9352 12.1356 17.9347 12.1363C17.9337 12.1374 17.9328 12.1384 17.9319 12.1395C17.9016 12.1715 17.8828 12.2147 17.8828 12.2625V12.2627V16.2555V16.2557C17.8828 16.3036 17.9018 16.347 17.9323 16.379C17.933 16.3799 17.9339 16.3809 17.9347 16.3816C17.9354 16.3825 17.9365 16.3834 17.9373 16.3841C17.969 16.4148 18.0121 16.434 18.0595 16.434H20.6062C20.7039 16.434 20.7828 16.3539 20.7828 16.2555V15.6124C20.7828 15.5141 20.7039 15.4339 20.6062 15.4339H18.8744V14.7589H20.6062C20.7039 14.7589 20.7828 14.679 20.7828 14.5804V13.9376C20.7828 13.839 20.7039 13.7589 20.6062 13.7589H18.8744V13.084H20.6062Z" fill="#3F3F4C"/>
</svg>
