<svg width="18" height="16" viewBox="0 0 18 16" fill="none" xmlns="http://www.w3.org/2000/svg">
<path fill-rule="evenodd" clip-rule="evenodd" d="M6.8733 0.708008L6.95482 0.708008C8.29004 0.707998 9.34784 0.70799 10.1847 0.806908C11.0438 0.908462 11.7511 1.12166 12.3419 1.60651C12.5423 1.77099 12.7261 1.95477 12.8906 2.1552C13.3754 2.74599 13.5886 3.45324 13.6902 4.31238C13.713 4.50549 13.7305 4.71037 13.7441 4.92771C14.399 4.60127 14.9541 4.33305 15.4167 4.18168C15.9596 4.00405 16.5354 3.93236 17.0665 4.26058C17.5975 4.5888 17.7909 5.1359 17.8748 5.70089C17.9558 6.24599 17.9558 6.96403 17.9557 7.8267L17.9557 8.17265C17.9558 9.03532 17.9558 9.75336 17.8748 10.2985C17.7909 10.8635 17.5975 11.4105 17.0665 11.7388C16.5354 12.067 15.9596 11.9953 15.4167 11.8177C14.9541 11.6663 14.399 11.3981 13.7441 11.0716C13.7305 11.289 13.713 11.4939 13.6902 11.687C13.5886 12.5461 13.3754 13.2534 12.8906 13.8441C12.7261 14.0446 12.5423 14.2284 12.3419 14.3928C11.7511 14.8777 11.0438 15.0909 10.1847 15.1924C9.34785 15.2914 8.29006 15.2914 6.95485 15.2913L6.87327 15.2913C5.53807 15.2914 4.48028 15.2914 3.64344 15.1924C2.7843 15.0909 2.07705 14.8777 1.48626 14.3928C1.28583 14.2284 1.10205 14.0446 0.937563 13.8441C0.452715 13.2534 0.239517 12.5461 0.137963 11.687C0.0390447 10.8501 0.0390527 9.79232 0.0390629 8.4571L0.0390628 7.54225C0.0390526 6.20703 0.0390446 5.14923 0.137963 4.31238C0.239517 3.45324 0.452715 2.74599 0.937563 2.1552C1.10205 1.95477 1.28583 1.77099 1.48626 1.60651C2.07705 1.12166 2.7843 0.908462 3.64344 0.806908C4.48029 0.70799 5.53808 0.707998 6.8733 0.708008ZM12.5391 8.41634L12.5391 7.58301C12.5391 6.19792 12.538 5.21404 12.4488 4.45912C12.3612 3.71798 12.1961 3.27936 11.9243 2.94819C11.8118 2.81106 11.686 2.68531 11.5489 2.57277C11.2177 2.30099 10.7791 2.13587 10.038 2.04827C9.28303 1.95903 8.29916 1.95801 6.91406 1.95801C5.52897 1.95801 4.5451 1.95903 3.79017 2.04827C3.04904 2.13587 2.61042 2.30099 2.27925 2.57277C2.14211 2.68531 2.01637 2.81106 1.90383 2.94819C1.63204 3.27936 1.46693 3.71798 1.37932 4.45912C1.29009 5.21404 1.28906 6.19792 1.28906 7.58301L1.28906 8.41634C1.28906 9.80144 1.29009 10.7853 1.37932 11.5402C1.46693 12.2814 1.63204 12.72 1.90383 13.0512C2.01637 13.1883 2.14211 13.314 2.27925 13.4266C2.61042 13.6984 3.04904 13.8635 3.79017 13.9511C4.5451 14.0403 5.52897 14.0413 6.91406 14.0413C8.29916 14.0413 9.28303 14.0403 10.038 13.9511C10.7791 13.8635 11.2177 13.6984 11.5489 13.4266C11.686 13.314 11.8118 13.1883 11.9243 13.0512C12.1961 12.72 12.3612 12.2814 12.4488 11.5402C12.538 10.7853 12.5391 9.80144 12.5391 8.41634ZM13.7891 9.69674L13.9922 9.79831C14.8217 10.2131 15.3806 10.4906 15.8054 10.6297C16.2216 10.7658 16.3475 10.7136 16.4093 10.6755C16.4711 10.6373 16.5741 10.5479 16.6384 10.1149C16.7041 9.67265 16.7057 9.04866 16.7057 8.12126L16.7057 7.87809C16.7057 6.95069 16.7041 6.3267 16.6384 5.8845C16.5741 5.45141 16.4711 5.36206 16.4093 5.32389C16.3475 5.28572 16.2216 5.23354 15.8054 5.3697C15.3806 5.50872 14.8217 5.7863 13.9922 6.20104L13.7891 6.30261L13.7891 7.47175C13.7891 7.49516 13.7891 7.51866 13.7891 7.54225L13.7891 8.4571C13.7891 8.48069 13.7891 8.50419 13.7891 8.5276L13.7891 9.69674ZM6.91406 5.29134C7.25924 5.29134 7.53906 5.57116 7.53906 5.91634L7.53906 7.37468L8.9974 7.37468C9.34257 7.37468 9.6224 7.6545 9.6224 7.99968C9.6224 8.34485 9.34257 8.62468 8.9974 8.62468L7.53906 8.62468L7.53906 10.083C7.53906 10.4282 7.25924 10.708 6.91406 10.708C6.56889 10.708 6.28906 10.4282 6.28906 10.083L6.28906 8.62468L4.83073 8.62468C4.48555 8.62468 4.20573 8.34485 4.20573 7.99968C4.20573 7.6545 4.48555 7.37468 4.83073 7.37468L6.28906 7.37468L6.28906 5.91634C6.28906 5.57116 6.56889 5.29134 6.91406 5.29134Z" fill="white"/>
</svg>
