<svg width="834" height="501" viewBox="0 0 834 501" fill="none" xmlns="http://www.w3.org/2000/svg">
<path d="M660.126 0L463.453 0.000157848L501.477 39.9112H566.149V125.577L605.433 164.79V39.9112L698.763 39.9111L660.126 0Z" fill="white"/>
<path d="M188.578 0H385.251L347.024 39.911H286.369V120.751L247.085 160.705V39.911H148.75L188.578 0Z" fill="white"/>
<path d="M433.65 0H414.438L376.361 39.911H471.913L433.65 0Z" fill="white"/>
<path d="M244.147 435.906H280.712L278.751 445.014H266.684L258.574 483.141H245.843L253.953 445.014H242.253L244.147 435.906ZM282.44 435.906H319.005L317.044 445.014H304.978L296.867 483.141H284.136L292.246 445.014H280.546L282.44 435.906ZM346.595 435.906H359.326L351.215 473.733H370.761L368.7 483.141H336.523L346.595 435.906ZM383.791 435.906H417.065L415.17 444.681H394.461L392.5 454.155H411.979L410.184 462.664H390.672L388.212 474.299H409.652L407.757 483.141H373.719L383.791 435.906ZM445.419 445.147L434.948 464.16H447.679L445.419 445.147ZM439.103 435.906H454.76L462.372 483.141H449.84L448.61 473.069H430.095L424.444 483.141H411.181L439.103 435.906ZM515.889 437.069L513.163 446.775C511.39 445.823 509.551 445.113 507.645 444.648C505.762 444.16 503.789 443.917 501.728 443.917C495.479 443.917 490.582 445.512 487.036 448.703C483.49 451.894 481.718 456.271 481.718 461.833C481.718 465.889 482.804 469.069 484.975 471.373C487.147 473.678 490.139 474.83 493.95 474.83C494.726 474.83 495.524 474.775 496.344 474.664C497.163 474.531 498.05 474.343 499.003 474.099L501.13 464.227H493.352L495.18 455.651H514.859L509.274 481.778C506.925 482.553 504.421 483.129 501.762 483.506C499.102 483.905 496.188 484.105 493.019 484.105C485.374 484.105 479.446 482.143 475.236 478.221C471.025 474.299 468.92 468.792 468.92 461.7C468.92 458.11 469.507 454.764 470.682 451.662C471.878 448.537 473.629 445.8 475.934 443.451C478.815 440.438 482.194 438.233 486.072 436.836C489.95 435.44 494.67 434.742 500.233 434.742C503.091 434.742 505.817 434.931 508.41 435.307C511.003 435.684 513.496 436.271 515.889 437.069ZM527.723 435.906H540.387L534.67 462.232C534.404 463.385 534.205 464.526 534.072 465.656C533.961 466.764 533.905 467.85 533.905 468.914C533.905 470.686 534.548 472.182 535.833 473.401C537.119 474.62 538.703 475.229 540.587 475.229C543.113 475.229 545.119 474.254 546.603 472.304C548.088 470.354 549.395 466.842 550.526 461.767L556.243 435.906H568.409L562.359 465.29C560.985 471.939 558.503 476.781 554.913 479.817C551.323 482.852 546.293 484.37 539.822 484.37C533.861 484.37 529.285 483.008 526.094 480.282C522.903 477.534 521.307 473.612 521.307 468.515C521.307 467.362 521.363 466.254 521.473 465.191C521.584 464.105 521.761 463.074 522.005 462.099L527.723 435.906ZM577.916 435.906H611.19L609.295 444.681H588.586L586.625 454.155H606.104L604.309 462.664H584.797L582.337 474.299H603.777L601.882 483.141H567.844L577.916 435.906Z" fill="white"/>
<path d="M127.855 242.401L88.836 313.255H136.278L127.855 242.401ZM104.32 207.965H162.663L191.029 383.985H144.33L139.747 346.453H70.7508L49.6928 383.985H0.268433L104.32 207.965ZM358.007 211.929L347.106 246.241C340.665 243.351 334.141 241.204 327.535 239.8C320.928 238.313 314.157 237.57 307.22 237.57C296.732 237.57 288.681 239.139 283.065 242.277C277.532 245.333 274.766 249.792 274.766 255.655C274.766 262.014 281.042 267.795 293.594 272.997C298.632 275.062 302.595 276.796 305.486 278.2C320.103 285.302 330.053 292.238 335.339 299.01C340.624 305.782 343.266 314.411 343.266 324.899C343.266 344.14 335.917 359.5 321.217 370.979C306.518 382.375 286.575 388.073 261.388 388.073C250.735 388.073 240.495 387.247 230.668 385.596C220.923 384.027 211.509 381.632 202.425 378.411L212.583 342.117C219.932 345.751 227.034 348.476 233.889 350.293C240.825 352.109 247.597 353.018 254.203 353.018C266.26 353.018 275.757 351.036 282.694 347.072C289.63 343.108 293.099 337.74 293.099 330.969C293.099 322.463 283.891 314.535 265.476 307.186C260.851 305.369 257.259 303.924 254.699 302.85C244.707 298.638 237.274 293.106 232.402 286.251C227.53 279.397 225.094 271.139 225.094 261.477C225.094 244.466 231.907 230.675 245.532 220.104C259.158 209.452 277.037 204.125 299.168 204.125C311.473 204.125 322.58 204.786 332.49 206.107C342.482 207.428 350.988 209.369 358.007 211.929ZM396.902 207.965H443.849L406.317 383.985H359.37L396.902 207.965ZM556.2 242.401L517.181 313.255H564.623L556.2 242.401ZM532.665 207.965H591.008L619.374 383.985H572.675L568.092 346.453H499.096L478.038 383.985H428.613L532.665 207.965ZM669.418 207.965H727.266L754.641 297.276C757.118 305.204 759.018 312.017 760.339 317.715C761.66 323.413 762.61 328.863 763.188 334.065H765.294C765.624 329.193 766.285 323.784 767.276 317.838C768.267 311.893 769.629 304.956 771.363 297.028L790.192 207.965H833.051L795.518 383.985H737.671L707.694 285.508C706.29 281.049 705.093 276.507 704.102 271.882C703.111 267.175 702.367 262.262 701.872 257.142H700.014C699.188 263.583 698.321 269.735 697.413 275.599C696.504 281.379 695.513 286.829 694.44 291.949L674.992 383.985H631.885L669.418 207.965Z" fill="white"/>
</svg>
